Coordinates
version=1
nRows=17
nColumns=36
inDegrees=yes

Units are S.I. units (second, meters, Newtons, ...)
If the header above contains a line with 'inDegrees', this indicates whether rotational values are in degrees (yes) or radians (no).

endheader
time	pelvis_tilt	pelvis_list	pelvis_rotation	pelvis_tx	pelvis_ty	pelvis_tz	hip_flexion_r	hip_adduction_r	hip_rotation_r	knee_angle_r	knee_angle_r_beta	ankle_angle_r	subtalar_angle_r	mtp_angle_r	hip_flexion_l	hip_adduction_l	hip_rotation_l	knee_angle_l	knee_angle_l_beta	ankle_angle_l	subtalar_angle_l	mtp_angle_l	lumbar_extension	lumbar_bending	lumbar_rotation	arm_flex_r	arm_add_r	arm_rot_r	elbow_flex_r	pro_sup_r	arm_flex_l	arm_add_l	arm_rot_l	elbow_flex_l	pro_sup_l
      4.00000000	    -48.02342929	     -3.89006483	     -7.45443311	     -0.44466906	      0.79378048	     -0.57335864	    108.55085034	     -6.57709936	     -4.31860345	     78.65091715	      1.37271746	     20.10002168	     -1.04464324	     -7.49999987	    114.05457848	    -22.14487898	      9.44731144	     83.53556129	      1.45797059	     22.28378328	      5.97965850	     -7.49999987	    -32.46892772	     -0.29329561	     12.42428547	    123.32875541	     -9.30019889	     23.79734472	     78.13482872	     89.57291528	    123.08281426	     -2.26141522	     26.88204574	     75.63112546	     91.49934184
      4.01000000	    -48.08038177	     -3.88535030	     -7.36332736	     -0.44445561	      0.79603383	     -0.57386031	    108.32339587	     -6.56849557	     -4.20887692	     78.25726930	      1.36584701	     20.08163830	     -1.01665845	     -7.49999987	    113.79562286	    -22.03894378	      9.27997850	     83.18020677	      1.45176848	     22.26297235	      6.03355062	     -7.49999987	    -32.35533955	     -0.15736228	     12.48476690	    123.28738140	     -9.29000454	     23.80308751	     78.11198568	     89.61047836	    123.04989086	     -2.20637785	     26.93857400	     75.60164746	     91.54466790
      4.02000000	    -48.12042816	     -3.89468471	     -7.29510922	     -0.44419891	      0.79893975	     -0.57428733	    108.02204856	     -6.50579423	     -4.10350583	     77.77500548	      1.35742992	     20.03972144	     -1.00453949	     -7.49999987	    113.45273598	    -21.96114157	      9.11194870	     82.71171292	      1.44359172	     22.20213783	      6.07503687	     -7.49999987	    -32.24925795	     -0.04359828	     12.53058473	    123.16871630	     -9.31345894	     23.80902531	     78.08999949	     89.64107764	    122.99103046	     -2.16092106	     27.03954849	     75.59984825	     91.58787242
      4.03000000	    -48.13863466	     -3.91139580	     -7.24367599	     -0.44383695	      0.80252666	     -0.57470389	    107.62198766	     -6.40011556	     -4.00445043	     77.18590623	      1.34714820	     19.96314084	     -1.00821416	     -7.49999987	    113.02711697	    -21.90317028	      8.92687541	     82.15556452	      1.43388510	     22.09501676	      6.10956544	     -7.49999987	    -32.13233160	      0.05436308	     12.57581582	    122.96478231	     -9.34895402	     23.78067090	     78.08644251	     89.67135609	    122.82686801	     -2.11738370	     27.17036728	     75.61196095	     91.63250948
      4.04000000	    -48.13707621	     -3.95311105	     -7.20700855	     -0.44336236	      0.80673189	     -0.57508195	    107.11927282	     -6.24046490	     -3.89539699	     76.49727030	      1.33512924	     19.86349183	     -1.03026921	     -7.49999987	    112.51915436	    -21.87031539	      8.73284826	     81.50373377	      1.42250851	     21.96001981	      6.13374197	     -7.49999987	    -31.98577288	      0.17250916	     12.62187032	    122.61688619	     -9.41711769	     23.73051007	     78.09777511	     89.70008040	    122.56106408	     -2.07868590	     27.29728589	     75.64174611	     91.67457660
      4.05000000	    -48.13302349	     -3.97195146	     -7.19538531	     -0.44281243	      0.81160882	     -0.57531508	    106.54094695	     -6.02844119	     -3.79430351	     75.68678695	      1.32098363	     19.71873381	     -1.10868332	     -7.49999987	    111.90346331	    -21.84373151	      8.54235941	     80.72243574	      1.40887228	     21.76957846	      6.13666345	     -7.49999987	    -31.82174661	      0.23652177	     12.66343565	    122.18720806	     -9.48646937	     23.62702193	     78.19910196	     89.74257102	    122.18462893	     -2.06313933	     27.42748991	     75.72752034	     91.73209525
      4.06000000	    -48.11528998	     -4.02363303	     -7.15104403	     -0.44220162	      0.81702754	     -0.57564170	    105.87011969	     -5.81082273	     -3.65276401	     74.77948433	      1.30514821	     19.57316352	     -1.18765762	     -7.49999987	    111.22567005	    -21.80875608	      8.29704340	     79.86807803	      1.39396093	     21.59013624	      6.14194563	     -7.49999987	    -31.64332557	      0.37111072	     12.71092432	    121.65242384	     -9.56027964	     23.56022280	     78.29309695	     89.77723086	    121.73244879	     -2.05236093	     27.58971763	     75.86176879	     91.79226515
      4.07000000	    -48.31504963	     -3.86262328	     -7.04394802	     -0.44156369	      0.82283947	     -0.57607501	    105.45565869	     -5.62173231	     -3.36932757	     73.78813340	      1.28784588	     18.32825034	     -2.62076636	     -7.49999987	    110.54900782	    -21.70399504	      7.78565716	     78.77403602	      1.37486629	     20.76067782	      5.39460599	     -7.49999987	    -31.16319227	      0.30305455	     12.31784271	    120.54468651	     -9.31596901	     22.58449577	     78.92761650	     90.21467636	    121.04955918	     -2.26836227	     27.80605132	     76.54765921	     92.53630896
      4.08000000	    -48.21577535	     -3.90189101	     -6.97068172	     -0.44067318	      0.82938606	     -0.57686946	    104.54795123	     -5.49482544	     -3.28316992	     72.63199617	      1.26766748	     18.25567710	     -2.58645686	     -7.49999987	    109.66202809	    -21.63131075	      7.44535214	     77.83177984	      1.35842082	     20.64156203	      5.47703398	     -7.49999987	    -30.97451446	      0.50072423	     12.37542197	    119.89139569	     -9.43437500	     22.65624287	     78.93527771	     90.24408401	    120.33023046	     -2.32706470	     28.04355329	     76.61401284	     92.59973615
      4.09000000	    -48.12245225	     -3.92894689	     -6.94258314	     -0.43978344	      0.83654081	     -0.57731662	    103.61037335	     -5.25486239	     -3.15325997	     71.43438377	      1.24676520	     18.12424201	     -2.58615752	     -7.49999987	    108.65393622	    -21.60212643	      7.12949883	     76.65267376	      1.33784154	     20.46368652	      5.54512773	     -7.49999987	    -30.75598256	      0.62210994	     12.37630960	    119.10873440	     -9.54399087	     22.69900041	     79.05865476	     90.28475094	    119.54876069	     -2.42211015	     28.26070134	     76.79715989	     92.67531038
      4.10000000	    -48.17534280	     -3.69144090	     -6.89991481	     -0.43886411	      0.84399325	     -0.57763297	    102.85499485	     -4.98362470	     -2.77328853	     70.13454715	      1.22407877	     17.48044624	     -3.03392313	     -7.49999987	    107.63778251	    -21.60054151	      6.49367232	     75.36021493	      1.31528388	     19.84130566	      5.42844014	     -7.49999987	    -30.38440138	      0.46599368	     12.09596868	    117.98718742	     -9.60590615	     22.31171017	     80.02638156	     90.49981580	    118.56242861	     -2.66500592	     28.28832334	     77.81323173	     92.99025129
      4.11000000	    -48.07566190	     -3.78059342	     -6.84412089	     -0.43788189	      0.85175854	     -0.57793287	    101.80453561	     -4.73456212	     -2.66111177	     68.79206023	      1.20064795	     17.33046078	     -3.05289004	     -7.49999987	    106.58786564	    -21.54332949	      6.19768836	     74.08544452	      1.29303493	     19.66900157	      5.46300251	     -7.49999987	    -30.01702318	      0.64846648	     12.03565733	    116.97183692	     -9.77878583	     22.49630030	     79.98970256	     90.53365732	    117.57784110	     -2.73329343	     28.55085178	     77.80296479	     93.04115760
      4.12000000	    -48.16910687	     -3.57276146	     -6.80042434	     -0.43675534	      0.85998137	     -0.57825023	    100.96714685	     -4.43638557	     -2.30144897	     67.29084394	      1.17444678	     15.99238289	     -4.41100910	     -7.49999987	    105.51007888	    -21.46693981	      5.61393626	     72.60116976	      1.26712945	     18.69866446	      4.88079846	     -7.49999987	    -29.43766141	      0.53079294	     11.79832580	    115.56116146	     -9.88197950	     22.18680946	     80.83061726	     91.09172776	    116.28621304	     -2.80401929	     28.52798876	     78.50761671	     93.85270691
      4.13000000	    -47.97091327	     -3.51478963	     -6.76510250	     -0.43528765	      0.86890427	     -0.57863943	     99.71153171	     -4.16739866	     -2.05387492	     65.72869840	      1.14718220	     15.69458885	     -4.46470939	     -7.49999987	    104.13133371	    -21.42929935	      5.13677861	     71.10237603	      1.24097057	     18.34199266	      4.97739741	     -7.49999987	    -29.18640198	      0.55024182	     11.69473066	    114.36933403	    -10.14224141	     22.26489391	     81.31379430	     91.23789702	    115.11555382	     -2.97512901	     28.64602679	     78.94795669	     94.06506198
      4.14000000	    -47.71993758	     -3.39999537	     -6.67499192	     -0.43356792	      0.87815772	     -0.57917473	     98.40019111	     -3.98925325	     -1.78917728	     64.14758626	      1.11958659	     15.13509000	     -4.65679845	     -7.49999987	    102.61156945	    -21.33645974	      4.52869264	     69.53464011	      1.21360841	     17.91474433	      4.87405592	     -7.49999987	    -28.90189605	      0.54710847	     11.47146568	    112.96391794	    -10.37730833	     22.29743387	     81.89865415	     91.42673582	    113.74811064	     -3.12675645	     28.75535453	     79.46209060	     94.32544342
      4.15000000	    -47.40761717	     -3.44552665	     -6.62029501	     -0.43171331	      0.88751399	     -0.57966126	     96.94493099	     -3.82706553	     -1.75222407	     62.51143993	      1.09103045	     14.88941478	     -4.59298289	     -7.49999987	    101.09953580	    -21.24672409	      4.12643340	     67.98882829	      1.18662891	     17.70873714	      4.90280123	     -7.49999987	    -28.55153891	      0.70889817	     11.38849108	    111.52515641	    -10.61101073	     22.57882711	     82.00940516	     91.48443316	    112.29912616	     -3.30123946	     29.07443236	     79.53654535	     94.39924475
      4.16000000	    -47.16618449	     -3.13400660	     -6.48573907	     -0.42973687	      0.89715405	     -0.58033705	     95.64845718	     -3.76900101	     -1.35968700	     60.80941060	      1.06132443	     13.70847593	     -5.15575111	     -7.49999987	     99.40139584	    -21.05822535	      3.26651004	     66.23111124	      1.15595096	     16.94746513	      4.34810798	     -7.49999987	    -28.17639153	      0.53018319	     10.99643373	    109.77417946	    -10.76698332	     22.23987070	     82.99914821	     91.85782232	    110.67439403	     -3.47016525	     28.90825553	     80.42464034	     94.85602829
